<svg id="visual" viewBox="0 0 900 600" width="900" height="600" xmlns="http://www.w3.org/2000/svg" xmlns:xlink="http://www.w3.org/1999/xlink" version="1.1"><g stroke-width="1" stroke-linejoin="bevel"><path d="M458 322L541 366L511 316Z" fill="#49151a" stroke="#49151a"></path><path d="M458 322L427 374L541 366Z" fill="#991d25" stroke="#991d25"></path><path d="M427 374L434 430L541 366Z" fill="#bb2127" stroke="#bb2127"></path><path d="M434 430L508 457L541 366Z" fill="#891c24" stroke="#891c24"></path><path d="M458 322L390 365L427 374Z" fill="#dc2626" stroke="#dc2626"></path><path d="M427 374L392 434L434 430Z" fill="#59171d" stroke="#59171d"></path><path d="M508 457L587 390L541 366Z" fill="#bb2127" stroke="#bb2127"></path><path d="M541 366L617 296L511 316Z" fill="#dc2626" stroke="#dc2626"></path><path d="M390 365L392 434L427 374Z" fill="#791b22" stroke="#791b22"></path><path d="M434 430L465 510L508 457Z" fill="#dc2626" stroke="#dc2626"></path><path d="M443 237L388 280L458 322Z" fill="#dc2626" stroke="#dc2626"></path><path d="M458 322L388 280L390 365Z" fill="#cb2327" stroke="#cb2327"></path><path d="M507 211L443 237L511 316Z" fill="#991d25" stroke="#991d25"></path><path d="M511 316L443 237L458 322Z" fill="#3a1316" stroke="#3a1316"></path><path d="M587 390L617 296L541 366Z" fill="#49151a" stroke="#49151a"></path><path d="M508 457L606 455L587 390Z" fill="#49151a" stroke="#49151a"></path><path d="M587 390L668 307L617 296Z" fill="#891c24" stroke="#891c24"></path><path d="M392 434L465 510L434 430Z" fill="#891c24" stroke="#891c24"></path><path d="M508 457L519 529L606 455Z" fill="#bb2127" stroke="#bb2127"></path><path d="M577 207L507 211L511 316Z" fill="#bb2127" stroke="#bb2127"></path><path d="M465 510L519 529L508 457Z" fill="#59171d" stroke="#59171d"></path><path d="M443 237L366 235L388 280Z" fill="#cb2327" stroke="#cb2327"></path><path d="M388 280L321 280L390 365Z" fill="#891c24" stroke="#891c24"></path><path d="M390 365L290 393L392 434Z" fill="#3a1316" stroke="#3a1316"></path><path d="M376 165L366 235L443 237Z" fill="#691920" stroke="#691920"></path><path d="M617 296L577 207L511 316Z" fill="#cb2327" stroke="#cb2327"></path><path d="M697 384L668 307L587 390Z" fill="#49151a" stroke="#49151a"></path><path d="M617 296L659 207L577 207Z" fill="#bb2127" stroke="#bb2127"></path><path d="M366 235L321 280L388 280Z" fill="#3a1316" stroke="#3a1316"></path><path d="M321 280L290 393L390 365Z" fill="#991d25" stroke="#991d25"></path><path d="M392 434L377 543L465 510Z" fill="#49151a" stroke="#49151a"></path><path d="M577 207L531 165L507 211Z" fill="#891c24" stroke="#891c24"></path><path d="M507 211L442 149L443 237Z" fill="#cb2327" stroke="#cb2327"></path><path d="M290 393L312 468L392 434Z" fill="#791b22" stroke="#791b22"></path><path d="M444 600L515 600L519 529Z" fill="#891c24" stroke="#891c24"></path><path d="M696 464L697 384L606 455Z" fill="#691920" stroke="#691920"></path><path d="M606 455L697 384L587 390Z" fill="#991d25" stroke="#991d25"></path><path d="M312 468L377 543L392 434Z" fill="#991d25" stroke="#991d25"></path><path d="M579 600L612 540L519 529Z" fill="#49151a" stroke="#49151a"></path><path d="M519 529L612 540L606 455Z" fill="#891c24" stroke="#891c24"></path><path d="M531 165L442 149L507 211Z" fill="#bb2127" stroke="#bb2127"></path><path d="M366 235L308 222L321 280Z" fill="#49151a" stroke="#49151a"></path><path d="M442 149L376 165L443 237Z" fill="#59171d" stroke="#59171d"></path><path d="M376 165L308 222L366 235Z" fill="#791b22" stroke="#791b22"></path><path d="M211 317L227 378L290 393Z" fill="#59171d" stroke="#59171d"></path><path d="M612 540L696 464L606 455Z" fill="#aa1f26" stroke="#aa1f26"></path><path d="M741 239L659 207L668 307Z" fill="#dc2626" stroke="#dc2626"></path><path d="M668 307L659 207L617 296Z" fill="#cb2327" stroke="#cb2327"></path><path d="M577 207L587 146L531 165Z" fill="#691920" stroke="#691920"></path><path d="M659 207L587 146L577 207Z" fill="#49151a" stroke="#49151a"></path><path d="M531 165L462 75L442 149Z" fill="#791b22" stroke="#791b22"></path><path d="M444 600L519 529L465 510Z" fill="#991d25" stroke="#991d25"></path><path d="M377 543L444 600L465 510Z" fill="#cb2327" stroke="#cb2327"></path><path d="M312 468L311 531L377 543Z" fill="#59171d" stroke="#59171d"></path><path d="M377 543L397 600L444 600Z" fill="#691920" stroke="#691920"></path><path d="M233 469L311 531L312 468Z" fill="#791b22" stroke="#791b22"></path><path d="M515 600L579 600L519 529Z" fill="#cb2327" stroke="#cb2327"></path><path d="M612 540L695 540L696 464Z" fill="#aa1f26" stroke="#aa1f26"></path><path d="M282 600L397 600L377 543Z" fill="#aa1f26" stroke="#aa1f26"></path><path d="M697 384L735 286L668 307Z" fill="#891c24" stroke="#891c24"></path><path d="M771 359L735 286L697 384Z" fill="#49151a" stroke="#49151a"></path><path d="M211 317L290 393L321 280Z" fill="#691920" stroke="#691920"></path><path d="M290 393L233 469L312 468Z" fill="#3a1316" stroke="#3a1316"></path><path d="M688 600L695 540L612 540Z" fill="#aa1f26" stroke="#aa1f26"></path><path d="M752 472L771 359L697 384Z" fill="#bb2127" stroke="#bb2127"></path><path d="M227 378L233 469L290 393Z" fill="#49151a" stroke="#49151a"></path><path d="M311 531L282 600L377 543Z" fill="#791b22" stroke="#791b22"></path><path d="M735 286L741 239L668 307Z" fill="#49151a" stroke="#49151a"></path><path d="M697 139L620 92L587 146Z" fill="#791b22" stroke="#791b22"></path><path d="M752 472L697 384L696 464Z" fill="#cb2327" stroke="#cb2327"></path><path d="M735 286L802 240L741 239Z" fill="#bb2127" stroke="#bb2127"></path><path d="M308 222L211 317L321 280Z" fill="#dc2626" stroke="#dc2626"></path><path d="M159 445L221 523L233 469Z" fill="#59171d" stroke="#59171d"></path><path d="M731 534L752 472L696 464Z" fill="#3a1316" stroke="#3a1316"></path><path d="M376 165L296 153L308 222Z" fill="#dc2626" stroke="#dc2626"></path><path d="M308 222L211 202L211 317Z" fill="#59171d" stroke="#59171d"></path><path d="M352 88L296 153L376 165Z" fill="#cb2327" stroke="#cb2327"></path><path d="M531 67L462 75L531 165Z" fill="#891c24" stroke="#891c24"></path><path d="M442 149L352 88L376 165Z" fill="#59171d" stroke="#59171d"></path><path d="M746 600L731 534L695 540Z" fill="#791b22" stroke="#791b22"></path><path d="M695 540L731 534L696 464Z" fill="#991d25" stroke="#991d25"></path><path d="M620 92L531 67L587 146Z" fill="#891c24" stroke="#891c24"></path><path d="M587 146L531 67L531 165Z" fill="#691920" stroke="#691920"></path><path d="M697 139L587 146L659 207Z" fill="#991d25" stroke="#991d25"></path><path d="M741 239L697 139L659 207Z" fill="#aa1f26" stroke="#aa1f26"></path><path d="M462 75L352 88L442 149Z" fill="#cb2327" stroke="#cb2327"></path><path d="M579 600L688 600L612 540Z" fill="#aa1f26" stroke="#aa1f26"></path><path d="M159 445L233 469L227 378Z" fill="#dc2626" stroke="#dc2626"></path><path d="M233 469L221 523L311 531Z" fill="#691920" stroke="#691920"></path><path d="M221 523L282 600L311 531Z" fill="#891c24" stroke="#891c24"></path><path d="M208 138L211 202L296 153Z" fill="#49151a" stroke="#49151a"></path><path d="M296 153L211 202L308 222Z" fill="#691920" stroke="#691920"></path><path d="M211 202L164 284L211 317Z" fill="#791b22" stroke="#791b22"></path><path d="M128 384L159 445L227 378Z" fill="#dc2626" stroke="#dc2626"></path><path d="M826 301L802 240L735 286Z" fill="#dc2626" stroke="#dc2626"></path><path d="M741 239L749 133L697 139Z" fill="#891c24" stroke="#891c24"></path><path d="M826 301L735 286L771 359Z" fill="#bb2127" stroke="#bb2127"></path><path d="M128 384L227 378L211 317Z" fill="#59171d" stroke="#59171d"></path><path d="M221 523L227 600L282 600Z" fill="#dc2626" stroke="#dc2626"></path><path d="M844 383L771 359L837 450Z" fill="#bb2127" stroke="#bb2127"></path><path d="M844 383L826 301L771 359Z" fill="#bb2127" stroke="#bb2127"></path><path d="M697 139L672 69L620 92Z" fill="#991d25" stroke="#991d25"></path><path d="M577 0L539 0L531 67Z" fill="#3a1316" stroke="#3a1316"></path><path d="M749 133L672 69L697 139Z" fill="#59171d" stroke="#59171d"></path><path d="M802 240L749 133L741 239Z" fill="#691920" stroke="#691920"></path><path d="M688 600L746 600L695 540Z" fill="#791b22" stroke="#791b22"></path><path d="M831 530L837 450L752 472Z" fill="#aa1f26" stroke="#aa1f26"></path><path d="M143 523L227 600L221 523Z" fill="#49151a" stroke="#49151a"></path><path d="M352 88L303 62L296 153Z" fill="#bb2127" stroke="#bb2127"></path><path d="M384 0L303 62L352 88Z" fill="#dc2626" stroke="#dc2626"></path><path d="M384 0L352 88L462 75Z" fill="#59171d" stroke="#59171d"></path><path d="M539 0L462 75L531 67Z" fill="#891c24" stroke="#891c24"></path><path d="M837 450L771 359L752 472Z" fill="#691920" stroke="#691920"></path><path d="M831 530L752 472L731 534Z" fill="#bb2127" stroke="#bb2127"></path><path d="M238 55L208 138L296 153Z" fill="#891c24" stroke="#891c24"></path><path d="M211 202L143 214L164 284Z" fill="#791b22" stroke="#791b22"></path><path d="M164 284L128 384L211 317Z" fill="#59171d" stroke="#59171d"></path><path d="M159 445L143 523L221 523Z" fill="#49151a" stroke="#49151a"></path><path d="M90 361L128 384L164 284Z" fill="#59171d" stroke="#59171d"></path><path d="M577 0L531 67L620 92Z" fill="#49151a" stroke="#49151a"></path><path d="M539 0L438 0L462 75Z" fill="#bb2127" stroke="#bb2127"></path><path d="M672 69L577 0L620 92Z" fill="#3a1316" stroke="#3a1316"></path><path d="M139 135L143 214L211 202Z" fill="#dc2626" stroke="#dc2626"></path><path d="M438 0L384 0L462 75Z" fill="#dc2626" stroke="#dc2626"></path><path d="M746 600L831 530L731 534Z" fill="#3a1316" stroke="#3a1316"></path><path d="M837 450L900 377L844 383Z" fill="#59171d" stroke="#59171d"></path><path d="M77 513L143 523L159 445Z" fill="#aa1f26" stroke="#aa1f26"></path><path d="M830 148L749 133L802 240Z" fill="#891c24" stroke="#891c24"></path><path d="M830 148L772 96L749 133Z" fill="#691920" stroke="#691920"></path><path d="M749 133L772 96L672 69Z" fill="#891c24" stroke="#891c24"></path><path d="M672 69L683 0L577 0Z" fill="#991d25" stroke="#991d25"></path><path d="M303 62L238 55L296 153Z" fill="#dc2626" stroke="#dc2626"></path><path d="M208 138L139 135L211 202Z" fill="#bb2127" stroke="#bb2127"></path><path d="M296 0L238 55L303 62Z" fill="#dc2626" stroke="#dc2626"></path><path d="M90 294L90 361L164 284Z" fill="#3a1316" stroke="#3a1316"></path><path d="M128 384L62 441L159 445Z" fill="#59171d" stroke="#59171d"></path><path d="M900 229L830 148L802 240Z" fill="#791b22" stroke="#791b22"></path><path d="M900 229L802 240L826 301Z" fill="#dc2626" stroke="#dc2626"></path><path d="M93 206L90 294L143 214Z" fill="#3a1316" stroke="#3a1316"></path><path d="M143 214L90 294L164 284Z" fill="#49151a" stroke="#49151a"></path><path d="M900 470L900 377L837 450Z" fill="#691920" stroke="#691920"></path><path d="M844 383L900 310L826 301Z" fill="#49151a" stroke="#49151a"></path><path d="M384 0L296 0L303 62Z" fill="#891c24" stroke="#891c24"></path><path d="M770 0L672 69L772 96Z" fill="#cb2327" stroke="#cb2327"></path><path d="M770 0L683 0L672 69Z" fill="#3a1316" stroke="#3a1316"></path><path d="M900 377L900 310L844 383Z" fill="#49151a" stroke="#49151a"></path><path d="M168 68L208 138L238 55Z" fill="#891c24" stroke="#891c24"></path><path d="M168 68L139 135L208 138Z" fill="#cb2327" stroke="#cb2327"></path><path d="M746 600L840 600L831 530Z" fill="#691920" stroke="#691920"></path><path d="M831 530L900 470L837 450Z" fill="#cb2327" stroke="#cb2327"></path><path d="M900 530L900 470L831 530Z" fill="#aa1f26" stroke="#aa1f26"></path><path d="M143 523L137 600L227 600Z" fill="#49151a" stroke="#49151a"></path><path d="M89 600L137 600L143 523Z" fill="#aa1f26" stroke="#aa1f26"></path><path d="M139 135L93 206L143 214Z" fill="#59171d" stroke="#59171d"></path><path d="M900 310L900 229L826 301Z" fill="#3a1316" stroke="#3a1316"></path><path d="M0 380L90 361L0 306Z" fill="#891c24" stroke="#891c24"></path><path d="M0 380L62 441L90 361Z" fill="#bb2127" stroke="#bb2127"></path><path d="M90 361L62 441L128 384Z" fill="#691920" stroke="#691920"></path><path d="M238 0L168 68L238 55Z" fill="#59171d" stroke="#59171d"></path><path d="M139 135L84 157L93 206Z" fill="#dc2626" stroke="#dc2626"></path><path d="M900 134L815 71L830 148Z" fill="#49151a" stroke="#49151a"></path><path d="M830 148L815 71L772 96Z" fill="#991d25" stroke="#991d25"></path><path d="M62 441L77 513L159 445Z" fill="#791b22" stroke="#791b22"></path><path d="M296 0L238 0L238 55Z" fill="#aa1f26" stroke="#aa1f26"></path><path d="M840 600L900 530L831 530Z" fill="#bb2127" stroke="#bb2127"></path><path d="M65 79L84 157L139 135Z" fill="#dc2626" stroke="#dc2626"></path><path d="M0 306L90 361L90 294Z" fill="#59171d" stroke="#59171d"></path><path d="M815 71L770 0L772 96Z" fill="#691920" stroke="#691920"></path><path d="M77 513L89 600L143 523Z" fill="#791b22" stroke="#791b22"></path><path d="M0 536L89 600L77 513Z" fill="#cb2327" stroke="#cb2327"></path><path d="M900 229L900 134L830 148Z" fill="#bb2127" stroke="#bb2127"></path><path d="M815 71L812 0L770 0Z" fill="#49151a" stroke="#49151a"></path><path d="M840 600L900 600L900 530Z" fill="#59171d" stroke="#59171d"></path><path d="M900 54L812 0L815 71Z" fill="#691920" stroke="#691920"></path><path d="M0 306L90 294L0 242Z" fill="#691920" stroke="#691920"></path><path d="M62 441L0 443L77 513Z" fill="#691920" stroke="#691920"></path><path d="M0 242L90 294L93 206Z" fill="#cb2327" stroke="#cb2327"></path><path d="M0 380L0 443L62 441Z" fill="#3a1316" stroke="#3a1316"></path><path d="M238 0L141 0L168 68Z" fill="#49151a" stroke="#49151a"></path><path d="M168 68L65 79L139 135Z" fill="#49151a" stroke="#49151a"></path><path d="M0 144L0 242L93 206Z" fill="#59171d" stroke="#59171d"></path><path d="M0 144L93 206L84 157Z" fill="#cb2327" stroke="#cb2327"></path><path d="M141 0L65 79L168 68Z" fill="#aa1f26" stroke="#aa1f26"></path><path d="M900 134L900 54L815 71Z" fill="#891c24" stroke="#891c24"></path><path d="M0 443L0 536L77 513Z" fill="#991d25" stroke="#991d25"></path><path d="M65 79L0 144L84 157Z" fill="#aa1f26" stroke="#aa1f26"></path><path d="M0 94L0 144L65 79Z" fill="#59171d" stroke="#59171d"></path><path d="M0 536L0 600L89 600Z" fill="#59171d" stroke="#59171d"></path><path d="M900 54L900 0L812 0Z" fill="#3a1316" stroke="#3a1316"></path><path d="M0 0L0 94L65 79Z" fill="#991d25" stroke="#991d25"></path><path d="M141 0L59 0L65 79Z" fill="#bb2127" stroke="#bb2127"></path><path d="M59 0L0 0L65 79Z" fill="#bb2127" stroke="#bb2127"></path></g></svg>