<svg width="80" height="80" viewBox="0 0 80 80" fill="none" xmlns="http://www.w3.org/2000/svg">
<rect width="80" height="80" rx="7" fill="#EC5252"/>
<path d="M56.0001 37.5588C56.0001 46.9152 48.8366 54.5 40.0001 54.5C31.1635 54.5 24.0001 46.9152 24.0001 37.5588C24.0001 28.2025 28.0001 19.2059 40.0001 6.5C50.6667 19.2059 56.0001 28.2025 56.0001 37.5588Z" fill="url(#paint0_radial_28_28)"/>
<path d="M17.1 67.07C16.6133 67.07 16.1733 66.9867 15.78 66.82C15.3933 66.6533 15.0867 66.4133 14.86 66.1C14.6333 65.7867 14.5167 65.4167 14.51 64.99H16.01C16.03 65.2767 16.13 65.5033 16.31 65.67C16.4967 65.8367 16.75 65.92 17.07 65.92C17.3967 65.92 17.6533 65.8433 17.84 65.69C18.0267 65.53 18.12 65.3233 18.12 65.07C18.12 64.8633 18.0567 64.6933 17.93 64.56C17.8033 64.4267 17.6433 64.3233 17.45 64.25C17.2633 64.17 17.0033 64.0833 16.67 63.99C16.2167 63.8567 15.8467 63.7267 15.56 63.6C15.28 63.4667 15.0367 63.27 14.83 63.01C14.63 62.7433 14.53 62.39 14.53 61.95C14.53 61.5367 14.6333 61.1767 14.84 60.87C15.0467 60.5633 15.3367 60.33 15.71 60.17C16.0833 60.0033 16.51 59.92 16.99 59.92C17.71 59.92 18.2933 60.0967 18.74 60.45C19.1933 60.7967 19.4433 61.2833 19.49 61.91H17.95C17.9367 61.67 17.8333 61.4733 17.64 61.32C17.4533 61.16 17.2033 61.08 16.89 61.08C16.6167 61.08 16.3967 61.15 16.23 61.29C16.07 61.43 15.99 61.6333 15.99 61.9C15.99 62.0867 16.05 62.2433 16.17 62.37C16.2967 62.49 16.45 62.59 16.63 62.67C16.8167 62.7433 17.0767 62.83 17.41 62.93C17.8633 63.0633 18.2333 63.1967 18.52 63.33C18.8067 63.4633 19.0533 63.6633 19.26 63.93C19.4667 64.1967 19.57 64.5467 19.57 64.98C19.57 65.3533 19.4733 65.7 19.28 66.02C19.0867 66.34 18.8033 66.5967 18.43 66.79C18.0567 66.9767 17.6133 67.07 17.1 67.07ZM20.4237 64.21C20.4237 63.65 20.5337 63.1533 20.7537 62.72C20.9804 62.2867 21.2838 61.9533 21.6638 61.72C22.0504 61.4867 22.4804 61.37 22.9538 61.37C23.3671 61.37 23.7271 61.4533 24.0338 61.62C24.3471 61.7867 24.5971 61.9967 24.7838 62.25V61.46H26.1938V67H24.7838V66.19C24.6038 66.45 24.3538 66.6667 24.0338 66.84C23.7204 67.0067 23.3571 67.09 22.9438 67.09C22.4771 67.09 22.0504 66.97 21.6638 66.73C21.2838 66.49 20.9804 66.1533 20.7537 65.72C20.5337 65.28 20.4237 64.7767 20.4237 64.21ZM24.7838 64.23C24.7838 63.89 24.7171 63.6 24.5838 63.36C24.4504 63.1133 24.2704 62.9267 24.0438 62.8C23.8171 62.6667 23.5738 62.6 23.3138 62.6C23.0538 62.6 22.8138 62.6633 22.5938 62.79C22.3738 62.9167 22.1938 63.1033 22.0538 63.35C21.9204 63.59 21.8538 63.8767 21.8538 64.21C21.8538 64.5433 21.9204 64.8367 22.0538 65.09C22.1938 65.3367 22.3738 65.5267 22.5938 65.66C22.8204 65.7933 23.0604 65.86 23.3138 65.86C23.5738 65.86 23.8171 65.7967 24.0438 65.67C24.2704 65.5367 24.4504 65.35 24.5838 65.11C24.7171 64.8633 24.7838 64.57 24.7838 64.23ZM30.6311 61.38C31.2911 61.38 31.8244 61.59 32.2311 62.01C32.6378 62.4233 32.8411 63.0033 32.8411 63.75V67H31.4411V63.94C31.4411 63.5 31.3311 63.1633 31.1111 62.93C30.8911 62.69 30.5911 62.57 30.2111 62.57C29.8244 62.57 29.5178 62.69 29.2911 62.93C29.0711 63.1633 28.9611 63.5 28.9611 63.94V67H27.5611V61.46H28.9611V62.15C29.1478 61.91 29.3844 61.7233 29.6711 61.59C29.9644 61.45 30.2844 61.38 30.6311 61.38ZM33.8124 64.21C33.8124 63.65 33.9224 63.1533 34.1424 62.72C34.3691 62.2867 34.6758 61.9533 35.0624 61.72C35.4491 61.4867 35.8791 61.37 36.3524 61.37C36.7124 61.37 37.0558 61.45 37.3824 61.61C37.7091 61.7633 37.9691 61.97 38.1624 62.23V59.6H39.5824V67H38.1624V66.18C37.9891 66.4533 37.7458 66.6733 37.4324 66.84C37.1191 67.0067 36.7558 67.09 36.3424 67.09C35.8758 67.09 35.4491 66.97 35.0624 66.73C34.6758 66.49 34.3691 66.1533 34.1424 65.72C33.9224 65.28 33.8124 64.7767 33.8124 64.21ZM38.1724 64.23C38.1724 63.89 38.1058 63.6 37.9724 63.36C37.8391 63.1133 37.6591 62.9267 37.4324 62.8C37.2058 62.6667 36.9624 62.6 36.7024 62.6C36.4424 62.6 36.2024 62.6633 35.9824 62.79C35.7624 62.9167 35.5824 63.1033 35.4424 63.35C35.3091 63.59 35.2424 63.8767 35.2424 64.21C35.2424 64.5433 35.3091 64.8367 35.4424 65.09C35.5824 65.3367 35.7624 65.5267 35.9824 65.66C36.2091 65.7933 36.4491 65.86 36.7024 65.86C36.9624 65.86 37.2058 65.7967 37.4324 65.67C37.6591 65.5367 37.8391 65.35 37.9724 65.11C38.1058 64.8633 38.1724 64.57 38.1724 64.23ZM44.0698 61.38C44.4898 61.38 44.8631 61.4733 45.1898 61.66C45.5164 61.84 45.7698 62.11 45.9498 62.47C46.1364 62.8233 46.2298 63.25 46.2298 63.75V67H44.8298V63.94C44.8298 63.5 44.7198 63.1633 44.4998 62.93C44.2798 62.69 43.9798 62.57 43.5998 62.57C43.2131 62.57 42.9064 62.69 42.6798 62.93C42.4598 63.1633 42.3498 63.5 42.3498 63.94V67H40.9498V59.6H42.3498V62.15C42.5298 61.91 42.7698 61.7233 43.0698 61.59C43.3698 61.45 43.7031 61.38 44.0698 61.38ZM47.2011 64.21C47.2011 63.65 47.3111 63.1533 47.5311 62.72C47.7578 62.2867 48.0611 61.9533 48.4411 61.72C48.8278 61.4867 49.2578 61.37 49.7311 61.37C50.1444 61.37 50.5044 61.4533 50.8111 61.62C51.1244 61.7867 51.3744 61.9967 51.5611 62.25V61.46H52.9711V67H51.5611V66.19C51.3811 66.45 51.1311 66.6667 50.8111 66.84C50.4978 67.0067 50.1344 67.09 49.7211 67.09C49.2544 67.09 48.8278 66.97 48.4411 66.73C48.0611 66.49 47.7578 66.1533 47.5311 65.72C47.3111 65.28 47.2011 64.7767 47.2011 64.21ZM51.5611 64.23C51.5611 63.89 51.4944 63.6 51.3611 63.36C51.2278 63.1133 51.0478 62.9267 50.8211 62.8C50.5944 62.6667 50.3511 62.6 50.0911 62.6C49.8311 62.6 49.5911 62.6633 49.3711 62.79C49.1511 62.9167 48.9711 63.1033 48.8311 63.35C48.6978 63.59 48.6311 63.8767 48.6311 64.21C48.6311 64.5433 48.6978 64.8367 48.8311 65.09C48.9711 65.3367 49.1511 65.5267 49.3711 65.66C49.5978 65.7933 49.8378 65.86 50.0911 65.86C50.3511 65.86 50.5944 65.7967 50.8211 65.67C51.0478 65.5367 51.2278 65.35 51.3611 65.11C51.4944 64.8633 51.5611 64.57 51.5611 64.23ZM57.4084 61.38C58.0684 61.38 58.6018 61.59 59.0084 62.01C59.4151 62.4233 59.6184 63.0033 59.6184 63.75V67H58.2184V63.94C58.2184 63.5 58.1084 63.1633 57.8884 62.93C57.6684 62.69 57.3684 62.57 56.9884 62.57C56.6018 62.57 56.2951 62.69 56.0684 62.93C55.8484 63.1633 55.7384 63.5 55.7384 63.94V67H54.3384V61.46H55.7384V62.15C55.9251 61.91 56.1618 61.7233 56.4484 61.59C56.7418 61.45 57.0618 61.38 57.4084 61.38ZM61.6598 60.8C61.4131 60.8 61.2064 60.7233 61.0398 60.57C60.8798 60.41 60.7998 60.2133 60.7998 59.98C60.7998 59.7467 60.8798 59.5533 61.0398 59.4C61.2064 59.24 61.4131 59.16 61.6598 59.16C61.9064 59.16 62.1098 59.24 62.2698 59.4C62.4364 59.5533 62.5198 59.7467 62.5198 59.98C62.5198 60.2133 62.4364 60.41 62.2698 60.57C62.1098 60.7233 61.9064 60.8 61.6598 60.8ZM62.3498 61.46V67H60.9498V61.46H62.3498Z" fill="white"/>
<defs>
<radialGradient id="paint0_radial_28_28" cx="0" cy="0" r="1" gradientUnits="userSpaceOnUse" gradientTransform="translate(40 40.66) rotate(-90) scale(34.16 31.2859)">
<stop offset="0.141" stop-color="#DC2626"/>
<stop offset="0.461" stop-color="#AA1D1D"/>
<stop offset="1" stop-color="#761414"/>
</radialGradient>
</defs>
</svg>
